<svg height="512" viewBox="0 0 176 176" width="512" xmlns="http://www.w3.org/2000/svg"><g id="Layer_2" data-name="Layer 2"><g id="_14.tiktok" data-name="14.tiktok"><path id="background" d="m144.52 173a532.59 532.59 0 0 1 -113 0 32.07 32.07 0 0 1 -28.52-28.48 532.59 532.59 0 0 1 0-113 32.07 32.07 0 0 1 28.48-28.52 532.59 532.59 0 0 1 113 0 32.07 32.07 0 0 1 28.52 28.48 532.59 532.59 0 0 1 0 113 32.07 32.07 0 0 1 -28.48 28.52z" fill="#0c0c0c"/><path id="shadow" d="m175.88 99.05q-.47 22.74-2.89 45.47a32 32 0 0 1 -28.47 28.48q-25.43 2.72-50.89 3l-46.8-46.8c-4.73-38.78 36.47-56.4 36.47-56.4l14.7 14.66 11.83-54.46z"/><path id="icon" d="m74.73 143a35.1 35.1 0 0 1 0-70.2h8.57v17.13h-8.57a18 18 0 1 0 18 18v-74.93h17.13v8.56a18 18 0 0 0 18 18h8.57v17.1h-8.63a34.72 34.72 0 0 1 -18-5v36.24a35.13 35.13 0 0 1 -35.07 35.1z" fill="#fff"/></g></g></svg>